<svg data-v-70b83f88="" version="1.1" xmlns="http://www.w3.org/2000/svg" xmlns:xlink="http://www.w3.org/1999/xlink" width="100%" height="100%" viewBox="0 0 340.000000 250.000000" preserveAspectRatio="xMidYMid meet" color-interpolation-filters="sRGB" style="margin: auto;">
  <rect data-v-70b83f88="" x="0" y="0" width="100%" height="100%" fill="#333333" fill-opacity="0" class="background"/>
  <g data-v-70b83f88="" fill="#ffffff" class="icon-text-wrapper icon-svg-group iconsvg" transform="translate(47.68748474121094,91.55779266357422)">
    <g class="iconsvg-imagesvg" transform="translate(0,0)">
      <g>
        <rect fill="#ffffff" fill-opacity="0" stroke-width="2" x="0" y="0" width="60" height="66.88441258764645" class="image-rect"/>
        <svg x="0" y="0" width="60" height="66.88441258764645" filtersec="colorsb9761645311" class="image-svg-svg primary" style="overflow: visible;">
          <svg xmlns="http://www.w3.org/2000/svg" viewBox="-0.010532882064580917 -0.000011205673217773438 119.44155883789062 133.14598083496094">
            <title>资源 55</title>
            <path d="M57.31 66.7v64.59c-.12 2-.8 2.3-2.55 1.3l-45.26-26c-2.46-1.42-4.87-2.93-7.34-4.34A3.85 3.85 0 0 1 0 98.52q.06-32.2 0-64.41a3 3 0 0 1 1.6-2.91c4-2.25 7.89-4.59 11.85-6.86 1.24-.72 2.05-.38 2.14 1.14v63.61a5.64 5.64 0 0 0 4.23 5.19c.55.11.76-.14.8-.57a15.22 15.22 0 0 0 .07-1.79v-65.6a2.91 2.91 0 0 0 0-.59c-1.11-4.57 1.23-7 5.12-8.68 2.65-1.18 5.08-2.84 7.62-4.27s3.2-1.23 3.2 1.79v86.67c0 2.71.69 3.65 3.21 4.53 1 .35 1.54.12 1.56-1v-1.79-91c0-2.92.87-4.6 3.56-5.86C48.4 4.46 51.61 2.31 55 .45c1.55-.87 2.17-.49 2.32 1.24.06.66 0 1.33 0 2z" fill="#133157"/>
            <path d="M62.13 66.65V4.24c0-4.68.36-4.89 4.38-2.58l47.33 27.18.18.09c5.34 3.13 5.34 3.13 5.34 9.37 0 19.81 0 39.62.06 59.43a5 5 0 0 1-2.89 4.87c-8.69 4.94-17.32 10-26 15-8.25 4.76-16.49 9.54-24.76 14.26-3.19 1.82-3.66 1.5-3.66-2.15q.02-31.56.02-63.06zM78 66.43v37.17c0 2.77.25 3 2.56 1.63 7-4 13.83-8.09 20.82-12a4.37 4.37 0 0 0 2.49-4.43q-.12-22.36 0-44.73a4.54 4.54 0 0 0-2.72-4.55C97.7 37.7 94.34 35.71 91 33.76q-5.52-3.15-11-6.35c-1.3-.76-2-.57-2 1.05v37.97z" fill="#fcb51f"/>
          </svg>
        </svg>
      </g>
    </g>
  </g>
  <defs v-gra="od"/>
</svg>
